{"title":"Yeh Lamhe Judaai Ke 2004  Hindi 720p WEB-DL x264 AAC { TaRa }","magnet":"magnet:?xt=urn:btih:6d789b24a8c887a61133cdd5e8d7963355b62e63&dn=Yeh+Lamhe+Judaai+Ke+2004++Hindi+720p+WEB-DL+x264+AAC+%7B+TaRa+%7D&tr=udp%3A%2F%2Ftracker.leechers-paradise.org%3A6969&tr=udp%3A%2F%2Fzer0day.ch%3A1337&tr=udp%3A%2F%2Fopen.demonii.com%3A1337&tr=udp%3A%2F%2Ftracker.coppersurfer.tk%3A6969&tr=udp%3A%2F%2Fexodus.desync.com%3A6969","uploader":"SkTaRa","categoryP":"video","categoryS":"hd___movies","size":"1196032953","seeders":"0","leechers":"48","description":"===================================================================\r\nGeneral\r\nComplete name               : Yeh Lamhe Judaai Ke 2004  Hindi 720p WEB-DL x264 AAC { TaRa }.mkv\r\nFormat                      : Matroska\r\nFormat version              : Version 4 / Version 2\r\nFile size                   : 1.11 GiB\r\nDuration                    : 2 h 21 min\r\nOverall bit rate            : 1 126 kb/s\r\n===================================================================\r\nVideo\r\nID                          : 1\r\nFormat                      : AVC\r\nFormat/Info                 : Advanced Video Codec\r\nFormat profile              : <a href=\"/cdn-cgi/l/email-protection\" class=\"__cf_email__\" data-cfemail=\"377f5e505f777b031906\">[email&#xA0;protected]</a>\r\nFormat settings             : CABAC / 4 Ref Frames\r\nFormat settings, CABAC      : Yes\r\nFormat settings, RefFrames  : 4 frames\r\nCodec ID                    : V_MPEG4/ISO/AVC\r\nDuration                    : 2 h 21 min\r\nBit rate                    : 996 kb/s\r\nWidth                       : 1 280 pixels\r\nHeight                      : 544 pixels\r\nDisplay aspect ratio        : 2.35:1\r\nFrame rate mode             : Constant\r\nFrame rate                  : 24.000 FPS\r\nColor space                 : YUV\r\nChroma subsampling          : 4:2:0\r\nBit depth                   : 8 bits\r\nScan type                   : Progressive\r\nBits/(Pixel*Frame)          : 0.060\r\nStream size                 : 1 009 MiB (88%)\r\nTitle                       : .....::::: TaRa :::::.....\r\nLanguage                    : Hindi\r\nDefault                     : Yes\r\nForced                      : No\r\n===================================================================\r\nAudio\r\nID                          : 2\r\nFormat                      : AAC\r\nFormat/Info                 : Advanced Audio Codec\r\nFormat profile              : LC\r\nCodec ID                    : A_AAC-2\r\nDuration                    : 2 h 21 min\r\nBit rate                    : 128 kb/s\r\nChannel(s)                  : 2 channels\r\nChannel positions           : Front: L R\r\nSampling rate               : 44.1 kHz\r\nFrame rate                  : 43.066 FPS (1024 SPF)\r\nCompression mode            : Lossy\r\nDelay relative to video     : 7 ms\r\nStream size                 : 130 MiB (11%)\r\nTitle                       : .....::::: TaRa :::::.....\r\nLanguage                    : Hindi\r\nDefault                     : Yes\r\nForced                      : No\r\n=================================================================== <a href=\"\nhttp://ssec.life/i/image/fF0l\" rel=\"nofollow\" target=\"_NEW\">\nhttp://ssec.life/i/image/fF0l</a> <a href=\"\nhttp://ssec.life/i/image/foYT\" rel=\"nofollow\" target=\"_NEW\">\nhttp://ssec.life/i/image/foYT</a> <a href=\"\nhttp://ssec.life/i/image/ffTV\" rel=\"nofollow\" target=\"_NEW\">\nhttp://ssec.life/i/image/ffTV</a> <a href=\"\nhttp://ssec.life/i/image/fL6a\" rel=\"nofollow\" target=\"_NEW\">\nhttp://ssec.life/i/image/fL6a</a> <a href=\"\nhttp://ssec.life/i/image/fXLc\" rel=\"nofollow\" target=\"_NEW\">\nhttp://ssec.life/i/image/fXLc</a> <a href=\"\nhttp://ssec.life/i/image/fES2\" rel=\"nofollow\" target=\"_NEW\">\nhttp://ssec.life/i/image/fES2</a> <a href=\"\nhttp://ssec.life/i/image/fhCN\" rel=\"nofollow\" target=\"_NEW\">\nhttp://ssec.life/i/image/fhCN</a> <a href=\"\nhttp://ssec.life/i/image/fA8d\" rel=\"nofollow\" target=\"_NEW\">\nhttp://ssec.life/i/image/fA8d</a> <a href=\"\nhttp://ssec.life/i/image/fRIY\" rel=\"nofollow\" target=\"_NEW\">\nhttp://ssec.life/i/image/fRIY</a> <a href=\"\nhttp://ssec.life/i/image/w2Yv\" rel=\"nofollow\" target=\"_NEW\">\nhttp://ssec.life/i/image/w2Yv</a> <a href=\"\nhttp://ssec.life/i/image/wM6Z\" rel=\"nofollow\" target=\"_NEW\">\nhttp://ssec.life/i/image/wM6Z</a> <a href=\"\nhttp://ssec.life/i/image/wC30\" rel=\"nofollow\" target=\"_NEW\">\nhttp://ssec.life/i/image/wC30</a> <a href=\"\nhttp://ssec.life/i/image/wcLe\" rel=\"nofollow\" target=\"_NEW\">\nhttp://ssec.life/i/image/wcLe</a> <a href=\"\nhttp://ssec.life/i/image/w1ks\" rel=\"nofollow\" target=\"_NEW\">\nhttp://ssec.life/i/image/w1ks</a> <a href=\"\nhttp://ssec.life/i/image/wKbD\" rel=\"nofollow\" target=\"_NEW\">\nhttp://ssec.life/i/image/wKbD</a> <a href=\"\nhttp://ssec.life/i/image/wTSi\" rel=\"nofollow\" target=\"_NEW\">\nhttp://ssec.life/i/image/wTSi</a> <a href=\"\nhttp://ssec.life/i/image/wsM1\" rel=\"nofollow\" target=\"_NEW\">\nhttp://ssec.life/i/image/wsM1</a> <a href=\"\nhttp://ssec.life/i/image/wt8S\" rel=\"nofollow\" target=\"_NEW\">\nhttp://ssec.life/i/image/wt8S</a> <a href=\"\nhttp://ssec.life/i/image/wnhC\" rel=\"nofollow\" target=\"_NEW\">\nhttp://ssec.life/i/image/wnhC</a> <a href=\"\nhttp://ssec.life/i/image/wGNr\" rel=\"nofollow\" target=\"_NEW\">\nhttp://ssec.life/i/image/wGNr</a> <a href=\"\nhttp://ssec.life/i/image/w33y\" rel=\"nofollow\" target=\"_NEW\">\nhttp://ssec.life/i/image/w33y</a>","last_updated":"2017-10-29T12:10:02.694Z","parsed":{"xt":"urn:btih:6d789b24a8c887a61133cdd5e8d7963355b62e63","dn":"Yeh Lamhe Judaai Ke 2004  Hindi 720p WEB-DL x264 AAC { TaRa }","tr":["udp://exodus.desync.com:6969","udp://open.demonii.com:1337","udp://tracker.coppersurfer.tk:6969","udp://tracker.leechers-paradise.org:6969","udp://zer0day.ch:1337"],"infoHash":"6d789b24a8c887a61133cdd5e8d7963355b62e63","infoHashBuffer":{"type":"Buffer","data":[109,120,155,36,168,200,135,166,17,51,205,213,232,215,150,51,85,182,46,99]},"name":"Yeh Lamhe Judaai Ke 2004  Hindi 720p WEB-DL x264 AAC { TaRa }","announce":["udp://exodus.desync.com:6969","udp://open.demonii.com:1337","udp://tracker.coppersurfer.tk:6969","udp://tracker.leechers-paradise.org:6969","udp://zer0day.ch:1337"],"urlList":[]}}